<?xml version="1.0" encoding="utf-8"?>
<!-- Generator: Adobe Illustrator 26.3.1, SVG Export Plug-In . SVG Version: 6.00 Build 0)  -->
<svg version="1.1"
	 id="svg1462" xmlns:svg="http://www.w3.org/2000/svg" xmlns:inkscape="http://www.inkscape.org/namespaces/inkscape" xmlns:sodipodi="http://sodipodi.sourceforge.net/DTD/sodipodi-0.dtd" xmlns:figurefirst="http://flyranch.github.io/figurefirst/"
	 xmlns="http://www.w3.org/2000/svg" xmlns:xlink="http://www.w3.org/1999/xlink" x="0px" y="0px" viewBox="0 0 360 216"
	 style="enable-background:new 0 0 360 216;" xml:space="preserve">
<style type="text/css">
	.st0{fill:none;}
	.st1{clip-path:url(#SVGID_00000154423698072080186210000003195971273588445088_);}
	.st2{fill-opacity:0.2;}
	.st3{clip-path:url(#SVGID_00000037684129657531284420000003551165537330392230_);}
	.st4{fill:#FF0000;fill-opacity:0.2;}
	
		.st5{opacity:0.1;clip-path:url(#SVGID_00000078033599324937246450000006194954167471890834_);fill:#FF0000;stroke:#FF0000;enable-background:new    ;}
	.st6{stroke:#000000;stroke-width:0.5;stroke-linejoin:round;}
	.st7{stroke:#000000;stroke-width:3.000000e-02;stroke-linejoin:round;stroke-miterlimit:10;}
	
		.st8{clip-path:url(#SVGID_00000044887218864862835400000014551253948500080572_);fill:none;stroke:#FF0000;stroke-width:0.5;stroke-linecap:square;stroke-linejoin:round;}
	
		.st9{clip-path:url(#SVGID_00000047778235944889999030000008799481416479810450_);fill:none;stroke:#000000;stroke-width:0.5;stroke-linecap:square;stroke-linejoin:round;}
	.st10{fill:none;stroke:#000000;stroke-width:0.5;stroke-linecap:square;}
	.st11{clip-path:url(#SVGID_00000038377548412686449510000014377209464751637161_);}
	.st12{clip-path:url(#SVGID_00000070096503128805419730000009033252328959829386_);}
	
		.st13{opacity:0.1;clip-path:url(#SVGID_00000055664616492105480090000005922250431315392936_);fill:#FF0000;stroke:#FF0000;enable-background:new    ;}
	
		.st14{clip-path:url(#SVGID_00000041267402148163792240000015871869040501972671_);fill:none;stroke:#FF0000;stroke-width:0.5;stroke-linecap:square;stroke-linejoin:round;}
	
		.st15{clip-path:url(#SVGID_00000139283044822371796230000014467239258677022858_);fill:none;stroke:#000000;stroke-width:0.5;stroke-linecap:square;stroke-linejoin:round;}
	.st16{fill-rule:evenodd;clip-rule:evenodd;fill:none;}
	.st17{font-family:'DejaVuSans';}
	.st18{font-size:6px;}
</style>
<sodipodi:namedview  bordercolor="#000000" borderopacity="0.25" id="namedview1464" inkscape:current-layer="g2786" inkscape:cx="183.14139" inkscape:cy="564.37449" inkscape:deskcolor="#d1d1d1" inkscape:document-units="mm" inkscape:pagecheckerboard="0" inkscape:pageopacity="0.0" inkscape:showpageshadow="2" inkscape:window-height="1403" inkscape:window-maximized="0" inkscape:window-width="1652" inkscape:window-x="2879" inkscape:window-y="47" inkscape:zoom="0.80265853" pagecolor="#ffffff" showgrid="false">
	</sodipodi:namedview>
<g id="z" transform="scale(0.352777777778,0.352777777778)" inkscape:groupmode="layer" inkscape:label="z">
	<figurefirst:targetlayer  figurefirst:name="z"></figurefirst:targetlayer>
	<g id="figure_1">
		<g id="patch_1">
			<path class="st0" d="M0,612.3h1020.5V0H0V612.3z"/>
		</g>
		<g id="axes_1">
			<g id="patch_2">
				<path class="st0" d="M550.9,474.6h408.2V168.5H550.9V474.6z"/>
			</g>
			<g id="PolyCollection_1">
				<g>
					<defs>
						<rect id="SVGID_1_" x="683" y="267.5" width="144" height="108"/>
					</defs>
					<clipPath id="SVGID_00000121990595730256712050000000977055374176555952_">
						<use xlink:href="#SVGID_1_"  style="overflow:visible;"/>
					</clipPath>
					<g style="clip-path:url(#SVGID_00000121990595730256712050000000977055374176555952_);">
						<g>
							<path id="mbd4c6ed394" class="st2" d="M550.9,335.5v-9.4l1.3,1.2l1.3-0.4l1.3,0.2l1.3,0.2l1.3,1.1l1.3,0.5l1.3,1.7l1.3,2
								l1.3,0.5l1.3,1.6l1.3,0.5l1.3,0.4l1.3,0.4l1.3,0.4l1.3-0.2l1.3,0.3l1.3,0.2l1.3,0.1l1.3-0.3l1.3,0.8l1.3-0.6l1.3-1.1l1.3,0.2
								l1.3-0.4l1.3-0.9l1.3-0.3l1.3,0.6l1.3,0l1.3,0.1l1.3,0l1.3-0.3l1.3,0l1.3,0l1.3,0l1.3,0l1.3,0.1l1.3,0l1.3,0l1.3,0.1l1.3,0.4
								l1.3-0.1l1.3-0.1l1.3-0.2l1.3-0.5l1.3,0.4l1.3-0.3l1.3-0.1l1.3,0l1.3-0.1l1.3,0l1.3,0l1.3,0.1l1.3-0.2l1.3,0.1l1.3,0l1.3-0.2
								l1.3-0.1l1.3-0.3l1.3-0.1l1.3-0.1l1.3,0.4l1.3-0.2l1.3-0.5l1.3,0.1l1.3,0.2l1.3-0.2l1.3,0l1.3-0.1l1.3-0.1l1.3-0.2l1.3-0.8
								l1.3-0.2l1.3-0.2l1.3,0.7l1.3-0.2l1.3-0.8l1.3,0l1.3-0.6l1.3,0.5l1.3-0.9l1.3-0.4l1.3-0.1l1.3,0.4l1.3-0.3l1.3-0.3l1.3-0.1
								l1.3-0.1l1.3,0.6l1.3,0l1.3,0.1l1.3,0l1.3-0.1l1.3,0.1l1.3,0l1.3-0.3l1.3-0.2l1.3-0.4l1.3-0.1l1.3-0.2l1.3-0.1l1.3-0.2
								l1.3-0.1l1.3-0.3l1.3-0.2l1.3-0.2l1.3-0.2l1.3,0l1.3-0.2l1.3,0l1.3-0.1l1.3-0.4l1.3,0l1.3-0.4l1.3-0.1l1.3-0.1l1.3,0l1.3,0
								l1.3-0.3l1.3,0.1l1.3-0.1l1.3-0.1l1.3-0.2l1.3-0.1l1.3,0l1.3-0.2l1.3-0.3l1.3-0.1l1.3-0.1l1.3-0.5l1.3-0.2l1.3,0l1.3,0
								l1.3-0.2l1.3,0l1.3-0.1l1.3-0.1l1.3-0.2l1.3-0.2l1.3-0.3l1.3,0l1.3-0.2l1.3-0.2l1.3,0.3l1.3,0l1.3,0l1.3,0.2l1.3-0.1l1.3-0.3
								l1.3-0.2l1.3-0.2l1.3-0.1l1.3-0.4l1.3-0.1l1.3-0.1l1.3-0.3l1.3-0.4l1.3,0l1.3,0l1.3-0.2l1.3-0.1l1.3-0.2l1.3-0.2l1.3-0.1
								l1.3-0.1l1.3-0.3l1.3-0.1l1.3-0.4l1.3-0.3l1.3-0.2l1.3-0.1l1.3-0.1l1.3-0.7l1.3-0.3l1.3-0.2l1.3-0.5l1.3-0.4l1.3-0.4l1.3-0.1
								l1.3-0.2l1.3-0.1l1.3-0.2l1.3-0.7l1.3-0.1l1.3-0.3l1.3,0l1.3,0.2l1.3-0.3l1.3,0.2l1.3-0.3l1.3,0l1.3,0.1l1.3-0.3l1.3,0l1.3,0
								l1.3-0.7l1.3,0l1.3-0.3l1.3-0.2l1.3-0.1l1.3-0.3l1.3-0.1l1.3-0.5l1.3-0.1l1.3-0.1l1.3-0.1l1.3-0.1l1.3-0.3l1.3-0.1l1.3-0.1
								l1.3-0.1l1.3-0.3l1.3-0.2l1.3,0l1.3,0l1.3-0.2l1.3-0.1l1.3-0.2l1.3-0.6l1.3-0.2l1.3-0.2l1.3-0.1l1.3-0.3l1.3-0.3l1.3-0.3
								l1.3-0.1l1.3,0l1.3-0.1l1.3,0l1.3-0.3l1.3,0.2l1.3,0l1.3-0.5l1.3-0.2l1.3-0.7l1.3,0l1.3,1.5l1.3,0l1.3-1l1.3,0l1.3-0.4
								l1.3-0.3l1.3-0.5l1.3-0.2l1.3-0.2l1.3,0l1.3,0l1.3,0l1.3-0.6l1.3-0.4l1.3,0l1.3-0.4l1.3,0l1.3,0.1l1.3,0l1.3-0.1l1.3-0.1
								l1.3-0.2l1.3,0l1.3,0l1.3-0.1l1.3-0.2l1.3-0.3l1.3-0.1l1.3-0.1l1.3-0.2l1.3,0l1.3,0l1.3-0.2l1.3,0l1.3,0l1.3-0.2l1.3-0.5
								l1.3-0.4l1.3-0.3l1.3,0.2l1.3-0.6l1.3-0.3l1.3,0l1.3,0l1.3-0.1l1.3-0.3l1.3-0.9l1.3-0.3l1.3,0.1l1.3-0.7l1.3-0.1l1.3-0.1
								l1.3-0.4l1.3-0.1l1.3-0.1l1.3-0.1l1.3-0.1l1.3-0.1l1.3,0l1.3-0.4l1.3-0.4l1.3-1.3l1.3,0.3l1.3-0.1l1.3-0.1l1.3-0.1l1.3-0.1
								l1.3,0l1.3-0.5l1.3,0l1.3,0l1.3-0.1l1.3-0.3l1.3-0.4l1.3-0.2v20l0,0l-1.3,0.1l-1.3,0.3l-1.3,0.2l-1.3,0l-1.3,0l-1.3,0
								l-1.3,0.5l-1.3,0l-1.3,0l-1.3,0l-1.3,0l-1.3,0l-1.3-0.4l-1.3,1.2l-1.3,0.4l-1.3,0.4l-1.3-0.1l-1.3,0.1l-1.3,0.1l-1.3,0
								l-1.3,0l-1.3,0.1l-1.3,0.3l-1.3,0.1l-1.3,0.1l-1.3,0.9l-1.3-0.1l-1.3,0.3l-1.3,1.9l-1.3,0.2l-1.3,0l-1.3,0l-1.3,0l-1.3,0.3
								l-1.3,0.5l-1.3-0.2l-1.3,0.3l-1.3,0.3l-1.3,0.4l-1.3,0.2l-1.3,0l-1.3,0l-1.3,0.1l-1.3,0l-1.3,0l-1.3,0.1l-1.3,0l-1.3,0.1
								l-1.3,0.3l-1.3,0.1l-1.3,0.1l-1.3,0l-1.3-0.1l-1.3,0.1l-1.3,0l-1.3,0l-1.3,0l-1.3-0.2l-1.3-0.1l-1.3,0.4l-1.3-0.1l-1.3,0.3
								l-1.3,0.5l-1.3,0l-1.3,0l-1.3,0l-1.3,0.2l-1.3,0.2l-1.3,0.4l-1.3,0.2l-1.3,0.4l-1.3,0l-1.3,1.7l-1.3-0.1l-1.3-2.2l-1.3,0
								l-1.3,1.1l-1.3,0.1l-1.3,0.4l-1.3,0l-1.3-0.2l-1.3,0.2l-1.3-0.3l-1.3,0.1l-1.3,0l-1.3,0.1l-1.3,0.3l-1.3,0.2l-1.3,0.2l-1.3,0
								l-1.3,0.1l-1.3,0.1l-1.3,0.6l-1.3,0.2l-1.3,0l-1.3,0.2l-1.3,0l-1.3,0l-1.3,0.2l-1.3,0.2l-1.3,0l-1.3,0.1l-1.3,0.1l-1.3,0.2
								l-1.3,0l-1.3,0.1l-1.3,0l-1.3,0.1l-1.3,0.4l-1.3,0l-1.3,0.3l-1.3,0.1l-1.3,0.2l-1.3,0.2l-1.3,0l-1.3,0.6l-1.3,0l-1.3-0.1
								l-1.3,0.2l-1.3-0.2l-1.3,0l-1.3,0.3l-1.3-0.2l-1.3,0.3l-1.3-0.2l-1.3-0.1l-1.3,0.2l-1.3,0l-1.3,0.9l-1.3,0.1l-1.3,0l-1.3,0.2
								l-1.3,0l-1.3,0.3l-1.3,0.3l-1.3,0.4l-1.3,0.1l-1.3,0.3l-1.3,0.6l-1.3,0.1l-1.3,0l-1.3,0.2l-1.3,0.2l-1.3,0.3l-1.3,0l-1.3,0.2
								l-1.3,0l-1.3,0.1l-1.3,0.1l-1.3,0.1l-1.3,0l-1.3,0.1l-1.3-0.1l-1.3-0.1l-1.3,0.4l-1.3,0.3l-1.3,0.1l-1.3,0.1l-1.3,0.4
								l-1.3,0.1l-1.3,0.1l-1.3,0.1l-1.3,0.3l-1.3,0l-1.3-0.2l-1.3,0l-1.3-0.1l-1.3-0.4l-1.3,0.2l-1.3,0.1l-1.3-0.1l-1.3,0.2
								l-1.3,0.1l-1.3,0.2l-1.3,0l-1.3,0l-1.3,0l-1.3,0.1l-1.3,0l-1.3,0l-1.3,0.1l-1.3,0.5l-1.3,0l-1.3,0.1l-1.3,0.3l-1.3,0.1
								l-1.3,0l-1.3,0l-1.3,0.1l-1.3,0l-1.3,0.1l-1.3-0.1l-1.3,0.3l-1.3-0.1l-1.3-0.1l-1.3,0l-1.3,0l-1.3,0.3l-1.3,0l-1.3,0.3
								l-1.3,0l-1.3,0l-1.3,0.1l-1.3-0.1l-1.3,0.1l-1.3,0.2l-1.3,0.1l-1.3,0.2l-1.3,0l-1.3,0.1l-1.3,0l-1.3,0.1l-1.3,0l-1.3,0.3
								l-1.3,0.1l-1.3,0.3l-1.3,0l-1.3-0.2l-1.3,0.1l-1.3,0l-1.3-0.1l-1.3-0.1l-1.3-0.9l-1.3,0l-1.3,0.1l-1.3,0.2l-1.3,0.5l-1.3-0.7
								l-1.3,0.1l-1.3,0.4l-1.3,1.8l-1.3-1.4l-1.3,0.7l-1.3-0.2l-1.3,1.3l-1.3,0.1l-1.3-1.3l-1.3,0.2l-1.3,0.1l-1.3,1.1l-1.3,0.1
								l-1.3,0l-1.3,0l-1.3-0.1l-1.3,0.1l-1.3-0.2l-1.3-0.4l-1.3,0.5l-1.3,0.2l-1.3-0.5l-1.3,0.2l-1.3,0l-1.3,0.2l-1.3,0l-1.3,0.1
								l-1.3-0.1l-1.3-0.1l-1.3,0.2l-1.3-0.1l-1.3,0l-1.3-0.1l-1.3,0l-1.3,0l-1.3,0.1l-1.3,0.3l-1.3-0.3l-1.3,0.6l-1.3,0.2l-1.3,0.1
								l-1.3,0.1l-1.3-0.3l-1.3,0l-1.3,0l-1.3,0l-1.3,0l-1.3,0l-1.3,0l-1.3,0l-1.3,0l-1.3,0.3l-1.3,0.1l-1.3,0l-1.3,0l-1.3-0.4
								l-1.3,0.8l-1.3,1.3l-1.3,0.3l-1.3-0.4l-1.3,0.8l-1.3,0.2l-1.3-0.9l-1.3,0.2l-1.3-0.2l-1.3-0.4l-1.3-0.3l-1.3,0l-1.3-0.6
								l-1.3-0.5l-1.3-0.6l-1.3-0.4l-1.3-1.2l-1.3-0.2l-1.3-1.5l-1.3-1.5l-1.3-0.3l-1.3-0.9l-1.3-0.1l-1.3-0.1l-1.3,0.9L550.9,335.5
								z"/>
						</g>
					</g>
				</g>
			</g>
			<g id="PolyCollection_2">
				<g>
					<defs>
						<rect id="SVGID_00000168806870633272655390000000826715360342688130_" x="683" y="267.5" width="144" height="108"/>
					</defs>
					<clipPath id="SVGID_00000008861329091666729990000011986973763621852082_">
						<use xlink:href="#SVGID_00000168806870633272655390000000826715360342688130_"  style="overflow:visible;"/>
					</clipPath>
					<g style="clip-path:url(#SVGID_00000008861329091666729990000011986973763621852082_);">
						<g>
							<path id="m27f629b7d4" class="st4" d="M550.9,330.4v-10.5l1.3,0.9l1.3,0.4l1.3,0.7l1.3,1.3l1.3,1.3l1.3,0.6l1.3,0.8l1.3,0.9
								l1.3,1.5l1.3,1.8l1.3,0.6l1.3,0.3l1.3-0.4l1.3,0.1l1.3-0.1l1.3,1l1.3,0l1.3,0.2l1.3-0.2l1.3,0.3l1.3-0.2l1.3,0.1l1.3,0.3
								l1.3-0.3l1.3-0.8l1.3,0.6l1.3,0.5l1.3-0.7l1.3-0.5l1.3,0.6l1.3,0.4l1.3,0.3l1.3,0.4l1.3,0.2l1.3,0.2l1.3,0.5l1.3,0.5l1.3,0.4
								l1.3,0.3l1.3,1l1.3,0.4l1.3,0.3l1.3,0.3l1.3,1l1.3,0.6l1.3,0.4l1.3,0.4l1.3,0.4l1.3,0.4l1.3,0.6l1.3,0.4l1.3,0.4l1.3,0.5
								l1.3,0.4l1.3,0.4l1.3,0.1l1.3,0.4l1.3,0.5l1.3,0.2l1.3,0.3l1.3,0.4l1.3,0.3l1.3-0.6l1.3,0l1.3,0.3l1.3,0.2l1.3,0.3l1.3,0.4
								l1.3,0.3l1.3,0.2l1.3,0.3l1.3,0.3l1.3,0.3l1.3,0.3l1.3,0.2l1.3,0.3l1.3,0l1.3,0.3l1.3,0.3l1.3,0.4l1.3,0.3l1.3,0.3l1.3,0.3
								l1.3,0.3l1.3,0.3l1.3,0.1l1.3,0l1.3,0.4l1.3,0.1l1.3,0.1l1.3,0.2l1.3,0l1.3,0.2l1.3,0.2l1.3,0l1.3-0.2l1.3,0l1.3,0l1.3,0
								l1.3,0l1.3-0.4l1.3,0l1.3,0.1l1.3-0.1l1.3-0.1l1.3,0.1l1.3-0.3l1.3-0.2l1.3-0.5l1.3-0.5l1.3-0.7l1.3-0.3l1.3-0.3l1.3-0.4
								l1.3-0.2l1.3-0.3l1.3-0.6l1.3,0l1.3,0l1.3-0.3l1.3-0.2l1.3-0.2l1.3-0.3l1.3-0.1l1.3-0.3l1.3-0.4l1.3-0.4l1.3-0.3l1.3-0.2
								l1.3-0.3l1.3-0.2l1.3-0.2l1.3-0.3l1.3-0.3l1.3-0.3l1.3-0.2l1.3-0.1l1.3-0.3l1.3-0.1l1.3,0l1.3-0.3l1.3-0.2l1.3,0l1.3-0.2
								l1.3-0.1l1.3,0.6l1.3-0.2l1.3-0.1l1.3,0l1.3-0.2l1.3,0.1l1.3-0.3l1.3-0.4l1.3,0.1l1.3-0.1l1.3-0.1l1.3,0.4l1.3,0.3l1.3,0.1
								l1.3-0.2l1.3-0.1l1.3,0.2l1.3-0.1l1.3,0.1l1.3,0.1l1.3,0l1.3,0.3l1.3,0.4l1.3,0.2l1.3,0l1.3,0.1l1.3-0.1l1.3,0.1l1.3,0.2
								l1.3-0.1l1.3,0.1l1.3,0.1l1.3-0.2l1.3,0l1.3,0l1.3,0l1.3-0.5l1.3,0.1l1.3,0.1l1.3,0l1.3,0l1.3,0.1l1.3,0.1l1.3-0.1l1.3,0
								l1.3-0.1l1.3-0.1l1.3,0l1.3,0l1.3,0l1.3-0.2l1.3-0.1l1.3,0l1.3,0.1l1.3,0.1l1.3,0l1.3,0l1.3-0.2l1.3,0l1.3,0.1l1.3-0.1l1.3,0
								l1.3-0.4l1.3-0.2l1.3-0.3l1.3,0l1.3,0l1.3,0l1.3-0.1l1.3-0.3l1.3,0l1.3,0l1.3,0l1.3,0l1.3,0l1.3,0l1.3-0.3l1.3,0.7l1.3-0.1
								l1.3,0.1l1.3,0.2l1.3-0.1l1.3,0l1.3,0.1l1.3,0l1.3-0.6l1.3,0l1.3-0.5l1.3-0.2l1.3,0l1.3-0.1l1.3,0.2l1.3-0.3l1.3-0.1l1.3-0.5
								l1.3-0.3l1.3-0.1l1.3-0.3l1.3-0.3l1.3-0.1l1.3-0.4l1.3-0.2l1.3-0.4l1.3-0.2l1.3-0.1l1.3-0.5l1.3,0.1l1.3-0.6l1.3-0.6l1.3,0
								l1.3,0.1l1.3-0.1l1.3-0.1l1.3-0.8l1.3-0.3l1.3,0l1.3,0.3l1.3-0.2l1.3,0l1.3,0l1.3,0l1.3,0l1.3,0.1l1.3-0.2l1.3,0l1.3,0
								l1.3-0.2l1.3-0.2l1.3,0l1.3,0l1.3-0.4l1.3,0l1.3,0l1.3,0l1.3,0.2l1.3-0.6l1.3-0.2l1.3-0.2l1.3-0.6l1.3,0l1.3-0.5l1.3-0.1
								l1.3-0.5l1.3-0.4l1.3-0.7l1.3-0.4l1.3-0.2l1.3,0.2l1.3-0.2l1.3-0.1l1.3,0.2l1.3,0l1.3,0.7l1.3,0l1.3,0l1.3,0l1.3,0l1.3-1.3
								l1.3,0l1.3-0.3l1.3-0.4l1.3-0.1l1.3-0.1l1.3-0.1l1.3-0.3v19.6l0,0l-1.3,0.2l-1.3,0l-1.3,0.1l-1.3,0.1l-1.3,0.3l-1.3,0.3
								l-1.3,0l-1.3,2l-1.3-0.1l-1.3,0l-1.3,0l-1.3,0l-1.3-0.7l-1.3,0l-1.3-0.1l-1.3,0l-1.3,0.1l-1.3-0.3l-1.3,0.2l-1.3,0.4
								l-1.3,0.9l-1.3,0.3l-1.3,0.4l-1.3,0.1l-1.3,0.4l-1.3-0.1l-1.3,0.5l-1.3,0.2l-1.3,0.1l-1.3,0.4l-1.3-0.3l-1.3,0l-1.3,0l-1.3,0
								l-1.3,0.3l-1.3,0l-1.3-0.1l-1.3,0.2l-1.3,0.2l-1.3-0.1l-1.3,0l-1.3,0l-1.3-0.2l-1.3,0l-1.3-0.1l-1.3-0.1l-1.3-0.1l-1.3,0.1
								l-1.3-0.5l-1.3,0l-1.3,0.3l-1.3,0.7l-1.3,0.1l-1.3,0l-1.3-0.1l-1.3,0l-1.3,0.5l-1.3,0.4l-1.3-0.2l-1.3,0.6l-1.3,0.1l-1.3,0.2
								l-1.3,0.4l-1.3,0.2l-1.3,0.3l-1.3,0.1l-1.3,0.3l-1.3,0.3l-1.3,0.1l-1.3,0.2l-1.3,0.6l-1.3,0.1l-1.3,0.2l-1.3-0.2l-1.3,0.1
								l-1.3-0.1l-1.3,0.1l-1.3,0.3l-1.3,0l-1.3,0.5l-1.3-0.1l-1.3-0.2l-1.3-0.1l-1.3,0.1l-1.3-0.2l-1.3-0.1l-1.3,0.1l-1.3-0.7
								l-1.3,0.2l-1.3,0l-1.3-0.1l-1.3,0l-1.3,0l-1.3,0l-1.3,0l-1.3,0.3l-1.3,0l-1.3,0l-1.3,0l-1.3,0l-1.3,0.2l-1.3,0.1l-1.3,0.3
								l-1.3,0l-1.3,0l-1.3-0.2l-1.3,0l-1.3,0.1l-1.3-0.1l-1.3,0l-1.3-0.1l-1.3-0.1l-1.3,0l-1.3,0l-1.3,0.2l-1.3-0.1l-1.3,0
								l-1.3-0.1l-1.3,0l-1.3,0l-1.3-0.1l-1.3,0l-1.3-0.1l-1.3-0.1l-1.3-0.1l-1.3-0.1l-1.3-0.1l-1.3-0.1l-1.3,0.5l-1.3,0l-1.3-0.1
								l-1.3-0.1l-1.3,0.1l-1.3-0.1l-1.3-0.2l-1.3,0l-1.3-0.3l-1.3-0.1l-1.3,0l-1.3-0.1l-1.3,0l-1.3-0.3l-1.3-0.4l-1.3-0.3l-1.3,0
								l-1.3-0.1l-1.3-0.2l-1.3,0.1l-1.3-0.2l-1.3,0l-1.3,0.1l-1.3-0.1l-1.3-0.3l-1.3-0.4l-1.3,0l-1.3,0l-1.3-0.1l-1.3,0.3l-1.3,0.2
								l-1.3-0.2l-1.3,0.2l-1.3,0l-1.3,0.1l-1.3,0.2l-1.3-0.5l-1.3,0.1l-1.3,0.1l-1.3,0l-1.3,0.2l-1.3,0.2l-1.3,0l-1.3,0l-1.3,0.2
								l-1.3,0.1l-1.3,0.2l-1.3,0.2L726,355l-1.3,0.2l-1.3,0.2l-1.3,0.2l-1.3,0.2l-1.3,0.2l-1.3,0.3l-1.3,0.3l-1.3,0.2l-1.3,0.3
								l-1.3,0.1l-1.3,0.3l-1.3,0.2l-1.3,0.2l-1.3,0.2l-1.3-0.1l-1.3,0l-1.3,0.5l-1.3,0.3l-1.3,0.2l-1.3,0.2l-1.3,0.2l-1.3,0.3
								l-1.3,0.9l-1.3,0.4l-1.3,0.4l-1.3,0.2l-1.3,0.3l-1.3,0l-1.3,0.1l-1.3,0l-1.3-0.1l-1.3-0.1l-1.3,0.3l-1.3-0.1l-1.3,0l-1.3,0
								l-1.3,0L676,362l-1.3,0l-1.3-0.2l-1.3-0.3l-1.3-0.1l-1.3-0.3l-1.3-0.2l-1.3-0.2l-1.3-0.4l-1.3-0.1l-1.3-0.2l-1.3-0.3
								l-1.3-0.4l-1.3-0.4l-1.3-0.4l-1.3-0.5l-1.3-0.4l-1.3-0.3l-1.3-0.4l-1.3-0.1l-1.3-0.4l-1.3-0.3L647,356l-1.3-0.3l-1.3-0.4
								l-1.3-0.4l-1.3-0.2l-1.3-0.3l-1.3-0.4l-1.3-0.3l-1.3-0.2l-1.3-0.3l-1.3-0.1l-1.3,1.1l-1.3-0.4l-1.3-0.5l-1.3-0.4l-1.3-0.3
								l-1.3-0.6l-1.3-0.4l-1.3-0.1l-1.3-0.5l-1.3-0.5l-1.3-0.5l-1.3-0.5l-1.3-0.5l-1.3-0.6l-1.3-0.4l-1.3-0.4l-1.3-0.4l-1.3-0.4
								l-1.3-0.5l-1.3-0.8l-1.3-0.3l-1.3-0.3l-1.3-0.4l-1.3-0.8l-1.3-0.3l-1.3-0.4l-1.3-0.5l-1.3-0.5l-1.3-0.3l-1.3-0.2L593,341
								l-1.3-0.3l-1.3-0.4l-1.3-0.5l-1.3,0.9l-1.3,0.5l-1.3-0.3l-1.3-0.9l-1.3,0.9l-1.3,0.5l-1.3-0.2l-1.3-0.1l-1.3,0l-1.3-0.4
								l-1.3,0.1l-1.3-0.2l-1.3-0.2l-1.3-1.2l-1.3-0.1l-1.3-0.3l-1.3,0.2l-1.3-0.4l-1.3-0.6l-1.3-1.4l-1.3-1.1l-1.3-0.7l-1.3-0.5
								l-1.3-0.3l-1.3-1.2l-1.3-1l-1.3-0.8l-1.3-0.3L550.9,330.4z"/>
						</g>
					</g>
				</g>
			</g>
			<g id="patch_3">
				<g>
					<defs>
						<rect id="SVGID_00000009572824672232247790000005592025990005425799_" x="683" y="267.5" width="144" height="108"/>
					</defs>
					<clipPath id="SVGID_00000054243923087562168570000003188177874180988590_">
						<use xlink:href="#SVGID_00000009572824672232247790000005592025990005425799_"  style="overflow:visible;"/>
					</clipPath>
					
						<path style="opacity:0.1;clip-path:url(#SVGID_00000054243923087562168570000003188177874180988590_);fill:#FF0000;stroke:#FF0000;enable-background:new    ;" d="
						M564,474.6V168.5h88.9v306.1H564z"/>
				</g>
			</g>
			<g id="matplotlib.axis_1">
				<g id="xtick_1">
					<g id="line2d_1">
						<g>
							<g>
								<path id="m9f4b01329c" class="st6" d="M564,503v-8.5"/>
							</g>
						</g>
					</g>
					<g id="text_1">
						<g transform="translate(198.030008 185.492659)scale(0.06 -0.06)">
							<g>
								<path id="DejaVuSans-20" class="st7" d="M6055.2-5671.9"/>
							</g>
						</g>
					</g>
				</g>
				<g id="xtick_2">
					<g id="line2d_2">
						<g>
							<g>
								<path id="m9f4b01329c_00000072968097283591551120000014253291138441833911_" class="st6" d="M652.9,503v-8.5"/>
							</g>
						</g>
					</g>
					<g id="text_2">
						<g transform="translate(229.384846 185.492659)scale(0.06 -0.06)">
							<g>
								<path id="DejaVuSans-20_00000013891294409113570910000006067266193014016648_" class="st7" d="M7014-5671.9"/>
							</g>
						</g>
					</g>
				</g>
				<g id="xtick_3">
					<g id="line2d_3">
						<g>
							<g>
								<path id="m9f4b01329c_00000163054880760906378740000002922447189519444121_" class="st6" d="M959.1,503v-8.5"/>
							</g>
						</g>
					</g>
				</g>
			</g>
			<g id="matplotlib.axis_2">
				<g id="ytick_1">
					<g id="line2d_4">
						<g>
							<g>
								<path id="m73cecd7be3" class="st6" d="M522.5,474.6h8.5"/>
							</g>
						</g>
					</g>
					<g id="text_3">
						<g transform="translate(178.931409 169.713127)scale(0.06 -0.06)">
							<g>
								<path id="DejaVuSans-20_00000066514646034865293870000017424230566481677492_" class="st7" d="M5471.3-5189.4"/>
							</g>
						</g>
					</g>
				</g>
				<g id="ytick_2">
					<g id="line2d_5">
						<g>
							<g>
								<path id="m73cecd7be3_00000039094852780612738880000003860950694039079055_" class="st6" d="M522.5,168.5h8.5"/>
							</g>
						</g>
					</g>
					<g id="text_4">
						<g transform="translate(178.931409 61.713133)scale(0.06 -0.06)">
							<g>
								<path id="DejaVuSans-20_00000148636347545790965080000014052553920539213223_" class="st7" d="M5471.3-1887"/>
							</g>
						</g>
					</g>
				</g>
			</g>
			<g id="line2d_6">
				<g>
					<defs>
						<rect id="SVGID_00000159463852403972080040000017507978791685525693_" x="683" y="267.5" width="144" height="108"/>
					</defs>
					<clipPath id="SVGID_00000133530770515003737370000018298508450184148617_">
						<use xlink:href="#SVGID_00000159463852403972080040000017507978791685525693_"  style="overflow:visible;"/>
					</clipPath>
					
						<path style="clip-path:url(#SVGID_00000133530770515003737370000018298508450184148617_);fill:none;stroke:#FF0000;stroke-width:0.5;stroke-linecap:square;stroke-linejoin:round;" d="
						M550.9,325.1l1.3,0.7l1.3,0.3l1.3,0.7l2.6,2.4l2.6,1.1l1.3,0.8l4,3.5l1.3,0.3l1.3-0.3l2.6,0.2l1.3,1.1l9.2,0.6l1.3-0.4l1.3-0.9
						l2.6,1.1l2.6-1.3l2.6,0.9l6.6,1.7l10.5,3.9l2.6,1l6.6,2.3l13.2,4l1.3,0.4l1.3-0.9l2.6,0.4l4,0.9l10.5,2.4l2.6,0.4l6.6,1.8
						l4,0.8l1.3,0.1l2.6,0.5l9.2,0.7l13.2-0.2l5.3-1.4l1.3-0.8l11.9-2.2l7.9-1.4l6.6-1.4l18.4-2.2l1.3,0.5l2.6-0.3l4-0.1l4-0.5
						l2.6-0.1l2.6,0.7l2.6,0l4,0l6.6,0.9l2.6,0.3l9.2,0.7l2.6-0.1l2.6,0l1.3-0.5l11.9,0.3l17.1-0.1l4,0.1l4-0.8l14.5-0.3l1.3-0.2
						l1.3,0.7l2.6,0l1.3,0.2l2.6-0.1l2.6,0.2l1.3-0.5l1.3,0l2.6-0.6l5.3,0l1.3-0.1l2.6-0.8l2.6-0.4l7.9-1.6l1.3-0.1l1.3-0.6l1.3,0.1
						l2.6-1l5.3,0l1.3-0.8l2.6-0.3l1.3,0.4l2.6-0.1l7.9,0.2l2.6-0.2l2.6-0.2l1.3,0l1.3-0.4l6.6-0.2l2.6-0.3l1.3-0.5l1.3,0l4-1
						l1.3-0.3l1.3-0.8l2.6-0.6l1.3,0.2l2.6-0.3l2.6,0.2l1.3,0.7l5.3,0l1.3-1.7l2.6-0.4l2.6-0.4l4-0.4l0,0"/>
				</g>
			</g>
			<g id="line2d_7">
				<g>
					<defs>
						<rect id="SVGID_00000020385829665377027160000018422012859181792437_" x="683" y="267.5" width="144" height="108"/>
					</defs>
					<clipPath id="SVGID_00000054230960591148797990000014160978489789952683_">
						<use xlink:href="#SVGID_00000020385829665377027160000018422012859181792437_"  style="overflow:visible;"/>
					</clipPath>
					
						<path style="clip-path:url(#SVGID_00000054230960591148797990000014160978489789952683_);fill:none;stroke:#000000;stroke-width:0.5;stroke-linecap:square;stroke-linejoin:round;" d="
						M550.9,330.8l1.3,1.3l1.3-0.7l2.6,0.3l1.3,1l1.3,0.4l2.6,3.4l1.3,0.4l1.3,1.4l5.3,1.9l1.3-0.1l4,0.7l1.3-0.2l1.3,0.8l1.3-0.4
						l1.3-1l1.3,0.3l1.3-0.4l1.3-1.1l1.3-0.6l1.3,0.5l21.1-0.2l1.3-0.5l1.3,0.4l2.6-0.4l13.2-0.1l4-0.4l1.3,0.5l1.3-0.2l1.3-0.5
						l2.6,0.5l2.6-0.1l4-0.2l1.3-1l2.6-0.3l1.3,1l1.3-0.1l1.3-1.1l1.3,0.1l1.3-0.6l1.3,0.9l1.3-1.3l2.6-0.5l1.3,0.5l2.6-0.7l2.6-0.2
						l1.3,0.8l7.9,0.2l4-0.8l6.6-0.4l5.3-0.7l4-0.2l1.3,0l1.3-0.4l4-0.4l18.4-1.1l1.3-0.5l5.3-0.3l4-0.1l4-0.7l2.6-0.1l1.3-0.2
						l2.6,0.4l6.6-0.3l17.1-2.1l6.6-0.8l2.6-0.5l2.6-0.1l1.3-0.7l10.5-1.8l1.3-0.1l1.3-0.8l10.5-0.3l1.3,0.2l2.6-0.2l1.3,0l1.3-0.6
						l2.6-0.3l14.5-1.7l10.5-0.9l1.3-0.2l1.3-0.6l11.9-1.3l1.3,0.1l1.3-0.2l2.6,0.2l1.3-0.5l1.3-0.1l1.3-0.9l1.3,0l1.3,1.8l1.3,0
						l1.3-1.3l1.3,0l5.3-1.2l2.6-0.2l2.6,0l2.6-0.9l1.3,0.1l1.3-0.4l6.6,0.1l2.6-0.2l4-0.2l2.6-0.4l10.5-0.6l4-1.1l1.3,0.2l2.6-0.9
						l4,0l1.3-0.3l1.3-1.4l1.3-0.3l1.3,0.1l1.3-0.8l11.9-0.7l2.6-0.7l1.3-1.3l1.3,0.3l11.9-0.7l4-0.8l0,0"/>
				</g>
			</g>
			<g id="patch_4">
				<path class="st10" d="M522.5,474.6V168.5"/>
			</g>
			<g id="patch_5">
				<path class="st0" d="M959.1,474.6V168.5"/>
			</g>
			<g id="patch_6">
				<path class="st10" d="M564,503h395"/>
			</g>
			<g id="patch_7">
				<path class="st0" d="M564,168.5h395"/>
			</g>
		</g>
		<g id="axes_2">
			<g id="patch_8">
				<path class="st0" d="M38.6,475.4h408.2V169.3H38.6V475.4z"/>
			</g>
			<g id="PolyCollection_3">
				<g>
					<defs>
						<rect id="SVGID_00000100347522344023449250000018275513333885350536_" x="170.7" y="268.4" width="144" height="108"/>
					</defs>
					<clipPath id="SVGID_00000002371027011956695360000003242464348260393136_">
						<use xlink:href="#SVGID_00000100347522344023449250000018275513333885350536_"  style="overflow:visible;"/>
					</clipPath>
					<g style="clip-path:url(#SVGID_00000002371027011956695360000003242464348260393136_);">
						<g>
							<path id="med5d797ac3" class="st2" d="M38.6,336.5v-11.2l1.3,0.7l1.3,0.4l1.3,0l1.3,0.1l1.3,0.2l1.3,1.8l1.3,0l1.3,0.5
								l1.3,1.2l1.3,0.1l1.3-0.8l1.3,0l1.3-1.4l1.3-0.4l1.3-0.3l1.3-0.6l1.3-0.5l1.3-0.6l1.3,1.5l1.3-0.3l1.3,0l1.3-0.2l1.3,0.1
								l1.3,0.1l1.3,0.3l1.3-0.1l1.3,0.8l1.3,0.4l1.3,0.1l1.3-0.1l1.3,0l1.3,0l1.3,0.5l1.3-0.1l1.3-0.1l1.3-0.2l1.3,0.5l1.3-0.1
								l1.3-0.1l1.3-0.1l1.3-0.1l1.3,0.4l1.3-0.1l1.3-0.1l1.3-0.2l1.3-0.2l1.3-0.2l1.3-0.1l1.3-0.1l1.3-0.2l1.3,0l1.3-0.2l1.3-0.2
								l1.3-0.3l1.3-0.3l1.3-0.4l1.3-0.4l1.3-0.4l1.3-0.4l1.3-0.4l1.3-0.4l1.3-1l1.3-0.5l1.3-0.5l1.3-0.5l1.3-0.5l1.3,0.1l1.3-0.4
								l1.3-0.6l1.3-0.4l1.3-0.4l1.3-0.4l1.3-0.5l1.3-0.3l1.3-0.4l1.3,0l1.3-0.4l1.3-0.6l1.3-0.5l1.3-0.3l1.3-0.4l1.3-0.4l1.3-0.4
								l1.3-0.4l1.3-0.4l1.3-0.4l1.3-0.4l1.3-0.4l1.3-0.4l1.3-0.4l1.3,0l1.3-0.3l1.3-0.8l1.3-0.4l1.3-0.4l1.3-0.4l1.3-0.4l1.3-0.4
								l1.3-0.4l1.3-0.3l1.3-0.3l1.3-0.3l1.3-0.3l1.3-0.3l1.3-0.3l1.3-0.4l1.3-0.4l1.3-0.4l1.3-0.4l1.3-0.4l1.3-0.4l1.3-0.4l1.3-0.4
								l1.3-0.3l1.3-0.4l1.3-0.3l1.3-0.9l1.3-0.4l1.3-0.3l1.3-0.4l1.3-0.4l1.3-0.4l1.3-0.4l1.3-0.4l1.3-0.4l1.3-0.4l1.3-0.4l1.3-0.3
								l1.3-0.5l1.3-0.3l1.3,0l1.3-0.3l1.3-0.3l1.3-0.3l1.3-0.9l1.3-0.3l1.3-0.3l1.3-0.3l1.3-0.3l1.3-0.3l1.3-0.3l1.3-0.3l1.3-0.3
								l1.3-0.3l1.3-0.3l1.3-0.3l1.3-0.3l1.3-0.3l1.3-0.4l1.3-0.3l1.3-0.3l1.3-0.3l1.3-0.3l1.3,0.2l1.3-0.3l1.3-0.3l1.3-0.2l1.3-0.3
								l1.3-0.3l1.3-0.2l1.3-0.2l1.3-0.3l1.3-0.3l1.3-0.3l1.3-0.3l1.3-0.3l1.3-0.3l1.3-0.4l1.3-0.3l1.3-0.2l1.3-0.2l1.3-0.2l1.3-0.2
								l1.3-0.2l1.3-0.2l1.3-0.2l1.3-0.2l1.3,0.3l1.3-0.4l1.3,0.5l1.3,0l1.3-0.1l1.3-0.1l1.3,0.2l1.3-0.8l1.3,0.1l1.3-0.6l1.3,0.1
								l1.3-0.1l1.3,0l1.3,0.2l1.3,0.2l1.3-0.3l1.3-0.5l1.3,0.2l1.3,0l1.3-0.4l1.3-0.1l1.3-0.2l1.3,0.2l1.3-0.2l1.3,0.1l1.3-0.2
								l1.3-0.2l1.3-0.2l1.3-0.1l1.3-0.6l1.3-0.2l1.3-0.1l1.3,0.2l1.3,0l1.3,0.8l1.3-1.1l1.3-0.1l1.3-0.3l1.3-0.1l1.3-0.1l1.3-0.7
								l1.3-0.1l1.3-0.2l1.3-0.1l1.3-0.2l1.3-0.2l1.3-0.2l1.3,0.1l1.3-0.7l1.3-0.1l1.3,0l1.3,0.1l1.3-0.1l1.3,0.1l1.3-0.7l1.3,0.2
								l1.3-0.4l1.3-0.3l1.3-0.1l1.3-0.1l1.3-0.2l1.3-0.4l1.3-0.3l1.3-0.1l1.3-1l1.3-0.3l1.3-0.3l1.3-0.1l1.3,0.3l1.3-0.2l1.3-0.1
								l1.3,0.4l1.3-0.3l1.3-0.5l1.3,0.1l1.3,0l1.3-0.2l1.3-0.9l1.3-0.2l1.3-0.1l1.3-0.1l1.3-0.2l1.3-0.1l1.3,0l1.3-0.1l1.3-0.1
								l1.3-0.4l1.3-0.7l1.3-0.2l1.3-0.2l1.3-0.2l1.3,0.1l1.3,0l1.3-0.2l1.3,0l1.3,0l1.3,0l1.3,0.2l1.3-0.1l1.3-0.1l1.3,0.3l1.3-0.2
								l1.3-0.1l1.3-0.1l1.3,0.3l1.3-0.1l1.3-0.1l1.3-0.1l1.3-0.3l1.3-0.2l1.3-0.1l1.3-0.1l1.3-0.1l1.3-0.1l1.3-0.1l1.3,0.2l1.3-0.1
								l1.3-0.8l1.3-0.1l1.3-0.1l1.3,0.1l1.3,0l1.3-0.1l1.3-0.1l1.3-0.8l1.3-0.1l1.3-1.3l1.3-0.1l1.3-0.1l1.3-0.3l1.3,0l1.3,0.1
								l1.3,0.1v21l0,0l-1.3-0.2l-1.3-0.2l-1.3-0.1l-1.3,0.2l-1.3,0.1l-1.3,0.1l-1.3,1.4l-1.3,0.1l-1.3,0.8l-1.3,0.1l-1.3,0.1
								l-1.3,0l-1.3-0.1l-1.3,0.1l-1.3,0.1l-1.3,0.7l-1.3,0.1l-1.3-0.3l-1.3,0.1l-1.3,0.1l-1.3,0.1l-1.3,0.1l-1.3,0.1l-1.3,0
								l-1.3,0.2l-1.3,0.1l-1.3,0.1l-1.3,0.1l-1.3-0.3l-1.3,0.1l-1.3,0l-1.3,0.1l-1.3-0.3l-1.3,0l-1.3,0.1l-1.3-0.2l-1.3-0.1l-1.3,0
								l-1.3,0l-1.3,0.1l-1.3-0.1l-1.3-0.3l-1.3,0.1l-1.3,0.2l-1.3,0.1l-1.3,0.6l-1.3,0.6l-1.3,0.1l-1.3,0.1L381,290l-1.3,0.1
								l-1.3,0.2l-1.3,0.1l-1.3,0.1l-1.3,0.2l-1.3,1l-1.3,0.2l-1.3,0l-1.3-0.2l-1.3,0.4l-1.3,0.2l-1.3-0.5l-1.3,0.1l-1.3,0.1
								l-1.3-0.3l-1.3-0.1l-1.3,0.3l-1.3,0.2l-1.3,1l-1.3,0.1l-1.3,0.3l-1.3,0.4l-1.3,0.1l-1.3,0l-1.3,0l-1.3,0.2l-1.3,0.3l-1.3-0.3
								l-1.3,0.6l-1.3-0.3l-1.3,0.1l-1.3-0.1l-1.3,0l-1.3,0.1l-1.3,0.6l-1.3-0.2l-1.3,0.2l-1.3,0.1l-1.3,0.2l-1.3,0.1l-1.3,0.1
								l-1.3,0.1l-1.3,0.7l-1.3,0l-1.3,0l-1.3,0.2l-1.3,0l-1.3,1l-1.3-0.8l-1.3,0l-1.3-0.2l-1.3,0.1l-1.3,0.2l-1.3,0.7l-1.3,0.1
								l-1.3,0.2l-1.3,0.2l-1.3,0.2l-1.3-0.1l-1.3,0.2l-1.3-0.2l-1.3,0.1l-1.3,0l-1.3,0.2l-1.3-0.1l-1.3-0.3l-1.3,1.1l-1.3,0.2
								l-1.3-0.3l-1.3-0.2l-1.3-0.2l-1.3,0.1l-1.3-0.2l-1.3,0.6l-1.3-0.1l-1.3,0.7l-1.3-0.2l-1.3,0.1l-1.3,0.1l-1.3,0l-1.3-0.6
								l-1.3,0.2l-1.3-0.2l-1.3,0.2l-1.3,0.2l-1.3,0.2l-1.3,0.2l-1.3,0.2l-1.3,0.2l-1.3,0.2l-1.3,0.2l-1.3,0.3l-1.3,0.5l-1.3,0.3
								l-1.3,0.3l-1.3,0.3l-1.3,0.3l-1.3,0.3l-1.3,0.2l-1.3,0.2l-1.3,0.1l-1.3,0.2l-1.3,0.2L244,304l-1.3,0.2l-1.3,0.3l-1.3-0.1
								l-1.3,0.3l-1.3,0.3l-1.3,0.3l-1.3,0.3l-1.3,0.4l-1.3,0.3l-1.3,0.3l-1.3,0.3l-1.3,0.3l-1.3,0.3l-1.3,0.3l-1.3,0.3l-1.3,0.3
								l-1.3,0.3l-1.3,0.3l-1.3,0.3l-1.3,0.3l-1.3,0.3l-1.3,0.8l-1.3,0.3l-1.3,0.2l-1.3,0.3l-1.3,0l-1.3,0.3l-1.3,0.4l-1.3,0.3
								l-1.3,0.3l-1.3,0.4l-1.3,0.4l-1.3,0.4l-1.3,0.4l-1.3,0.4l-1.3,0.4l-1.3,0.3l-1.3,0.3l-1.3,0.3l-1.3,1.1l-1.3,0.3l-1.3,0.4
								l-1.3,0.3l-1.3,0.3l-1.3,0.3l-1.3,0.3l-1.3,0.3l-1.3,0.3l-1.3,0.3l-1.3,0.3l-1.3,0.3l-1.3,0.3l-1.3,0.3l-1.3,0.3l-1.3,0.3
								l-1.3,0.3l-1.3,0.3l-1.3,0.3l-1.3,0.3l-1.3,0.3l-1.3,0.3l-1.3,0.4l-1.3,0.3l-1.3,0.7l-1.3,0.2l-1.3,0l-1.3,0.3l-1.3,0.3
								l-1.3,0.3l-1.3,0.3l-1.3,0.3l-1.3,0.3l-1.3,0.3l-1.3,0.3l-1.3,0.3l-1.3,0.4l-1.3,0.3l-1.3,0.5l-1.3,0.5l-1.3,0.3l-1.3,0.1
								l-1.3,0.3l-1.3,0.3l-1.3,0.4l-1.3,0.4l-1.3,0.3l-1.3,0.4l-1.3,0.4l-1.3,0.4l-1.3,0.2l-1.3,0.4l-1.3,0.4l-1.3,0.4l-1.3,0.4
								l-1.3,0.7l-1.3,0.3l-1.3,0.3l-1.3,0.3l-1.3,0.4l-1.3,0.4L111,338l-1.3,0.3l-1.3,0.2l-1.3,0.2l-1.3,0.1l-1.3-0.1l-1.3,0.1
								l-1.3-0.1l-1.3,0l-1.3,0.2l-1.3,0.2l-1.3,0.1l-1.3,0.1l-1.3,0.1l-1.3-0.1l-1.3,0.1l-1.3,0l-1.3,0l-1.3,0.1l-1.3-0.3l-1.3,0.2
								l-1.3,0.1l-1.3,0.1l-1.3-0.1l-1.3,0l-1.3,0l-1.3,0l-1.3-0.1l-1.3-0.1l-1.3-0.3l-1.3-0.1l-1.3-0.3l-1.3-0.1l-1.3-0.1l-1.3,0
								l-1.3,0.2l-1.3-0.1l-1.3-0.9l-1.3,0.1l-1.3,0l-1.3,0.2l-1.3,0.3l-1.3,0l-1.3,0.9l-1.3,0.1l-1.3,0.6l-1.3,0.4l-1.3-0.7
								l-1.3-0.4l-1.3,1.5l-1.3-3.2l-1.3-0.2l-1.3,0l-1.3,0.1l-1.3-0.3L38.6,336.5z"/>
						</g>
					</g>
				</g>
			</g>
			<g id="PolyCollection_4">
				<g>
					<defs>
						<rect id="SVGID_00000174562992522698984760000001837960622669875096_" x="170.7" y="268.4" width="144" height="108"/>
					</defs>
					<clipPath id="SVGID_00000083078113836607580900000016412261834607144123_">
						<use xlink:href="#SVGID_00000174562992522698984760000001837960622669875096_"  style="overflow:visible;"/>
					</clipPath>
					<g style="clip-path:url(#SVGID_00000083078113836607580900000016412261834607144123_);">
						<g>
							<path id="mb922c3957a" class="st4" d="M38.6,334.6v-11.6l1.3,0.9l1.3,1.1l1.3,0.8l1.3,0.2l1.3,1.3l1.3-0.6l1.3,1.1l1.3,1.3
								l1.3,0.5l1.3-0.4l1.3,0.5l1.3,0l1.3-0.6l1.3-0.2l1.3-0.7l1.3-0.3l1.3-0.2l1.3,0.5l1.3,0l1.3,0.1l1.3-0.1l1.3,0.3l1.3,0.7
								l1.3,1.7l1.3,0.2l1.3,0.2l1.3-0.5l1.3-0.9l1.3,0.3l1.3,0.3l1.3,1.3l1.3,1.1l1.3,0.5l1.3,0.6l1.3,0.6l1.3,0.7l1.3,0.7l1.3,0.7
								l1.3,1.3l1.3,0.5l1.3,0.5l1.3,0.5l1.3,1.3l1.3-0.2l1.3,0.6l1.3,0.6l1.3,0.6l1.3,0.6l1.3,1l1.3,0.8l1.3,0.7l1.3,0.6l1.3,0.6
								l1.3,0.6l1.3,0.6l1.3,0.6l1.3,0.6l1.3,0.6l1.3,0.6l1.3,0.6l1.3,0.7l1.3,0.6l1.3,0.6l1.3,0.6l1.3,0.6l1.3,0.6l1.3,0.6l1.3,0.6
								l1.3,0.6l1.3,0.6l1.3,0.6l1.3,0.6l1.3,0.6l1.3,0.6l1.3,0.6l1.3,0.6l1.3,0.6l1.3,0.6l1.3,0.6l1.3,0.6l1.3,0.6l1.3,0.6l1.3,0.6
								l1.3,0.6l1.3,0.6l1.3,0.5l1.3,0.5l1.3,0.5l1.3,0.4l1.3,0.4l1.3,0.3l1.3,0.3l1.3,0.2l1.3,0.2l1.3,0.2l1.3,0.1l1.3,0.1l1.3,0.1
								l1.3,0.1l1.3,0l1.3,0.1l1.3,0l1.3,0l1.3,0l1.3,0l1.3,0l1.3,0l1.3,0l1.3-0.1l1.3-0.1l1.3-0.1l1.3-0.1l1.3-0.1l1.3-0.1l1.3-0.1
								l1.3-0.1l1.3-0.1l1.3-0.1l1.3-0.1l1.3-0.1l1.3-0.1l1.3-0.1l1.3-0.1l1.3-0.1l1.3-0.2l1.3-0.2l1.3-0.2l1.3-0.1l1.3-0.2l1.3-0.1
								l1.3-0.1l1.3-0.1l1.3,0l1.3-0.1l1.3,0l1.3,0l1.3,0l1.3,0l1.3,0l1.3,0l1.3,0l1.3,0.1l1.3,0.1l1.3,0.1l1.3,0.1l1.3,0.1l1.3,0.1
								l1.3,0.2l1.3,0.2l1.3,0.2l1.3,0.2l1.3,0.2l1.3,0.2l1.3,0.2l1.3,0.2l1.3,0.2l1.3,0.2l1.3,0.2l1.3,0.2l1.3,0.2l1.3,0.2l1.3,0.3
								l1.3,0.3l1.3,0.3l1.3,0.2l1.3,0.2l1.3,0.2l1.3,1l1.3,0.2l1.3,0.2l1.3,0.2l1.3,0.2l1.3,0.2l1.3,0.2l1.3,0.2l1.3-0.7l1.3,0.1
								l1.3,0.3l1.3,0.2l1.3,0.2l1.3,0l1.3,0l1.3,0.2l1.3,0.2l1.3,0.3l1.3,0.2l1.3,0.1l1.3,0.1l1.3,0.6l1.3,0.1l1.3,0.9l1.3,0.1
								l1.3,0l1.3,0.1l1.3,0l1.3,0l1.3,0l1.3-0.2l1.3,0l1.3,0l1.3,0l1.3,0l1.3,0l1.3,0l1.3,0.4l1.3,0l1.3,0l1.3-0.1l1.3-0.1l1.3-0.1
								l1.3-0.2l1.3,0l1.3,0.6l1.3,0l1.3,0l1.3,0l1.3,0.2l1.3,0.1l1.3,0l1.3,0l1.3,0l1.3-0.3l1.3,0l1.3,0l1.3,0l1.3,0l1.3-0.1
								l1.3-0.2l1.3-0.1l1.3-1.2l1.3,0l1.3-0.1l1.3-0.1l1.3-0.1l1.3-0.1l1.3-0.2l1.3-0.1l1.3,0l1.3,0l1.3-0.2l1.3,0.7l1.3,0l1.3,0
								l1.3,0l1.3-0.3l1.3,0l1.3,0l1.3,0l1.3-0.3l1.3,0.6l1.3-0.8l1.3,0l1.3,0l1.3,0l1.3-0.3l1.3-0.1l1.3-0.1l1.3-0.1l1.3-0.1
								l1.3-0.1l1.3-0.1l1.3-0.1l1.3-0.1l1.3-0.1l1.3-0.4l1.3,0l1.3-0.2l1.3-0.2l1.3-0.2l1.3,0.2l1.3-0.2l1.3-0.3l1.3-0.3l1.3-0.3
								l1.3-0.3l1.3-0.2l1.3-0.3l1.3-0.2l1.3-0.2l1.3-0.2l1.3-0.2l1.3-0.2l1.3-0.2l1.3,0.7l1.3-1.4l1.3-0.5l1.3-0.2l1.3,0l1.3-0.1
								l1.3-0.1l1.3-0.2l1.3-0.2l1.3,0l1.3-0.2l1.3-0.4l1.3-0.2l1.3-0.2l1.3-0.6l1.3-0.2l1.3-0.5l1.3-0.6l1.3-0.3l1.3-0.3l1.3-0.3
								l1.3-0.3l1.3-0.3l1.3-0.3l1.3-0.3l1.3-0.1l1.3-0.5v19.2l0,0l-1.3,0.3l-1.3,0.1l-1.3,0.3l-1.3,0.3l-1.3,0.3l-1.3,0.3l-1.3,0.2
								l-1.3,0.3l-1.3,0.3l-1.3,0.5l-1.3,0.4l-1.3,0.2l-1.3,0.5l-1.3,0.2l-1.3,0.2l-1.3,0.4l-1.3,0.2l-1.3,0l-1.3,0.2l-1.3,0.1
								l-1.3,0.1l-1.3,0.1l-1.3,0.1l-1.3,0.1l-1.3,0.4l-1.3,1l-1.3-0.6l-1.3,0.2l-1.3,0.2l-1.3,0.2l-1.3,0.2l-1.3,0.2l-1.3,0.2
								l-1.3,0.3l-1.3,0.1l-1.3,0.3l-1.3,0.3l-1.3,0.3l-1.3,0.3l-1.3,0.3l-1.3-0.2l-1.3,0.2l-1.3,0.2l-1.3,0.2l-1.3-0.1l-1.3,0.3
								l-1.3,0.1l-1.3,0.1l-1.3,0.1l-1.3,0.1l-1.3,0.1l-1.3,0.1l-1.3,0.1l-1.3,0.1l-1.3,0.1l-1.3,0.3l-1.3,0.1l-1.3,0.1l-1.3-0.1
								l-1.3,0.7l-1.3-0.6l-1.3,0.2l-1.3,0.1l-1.3,0.1l-1.3,0l-1.3,0.3l-1.3-0.1l-1.3,0l-1.3,0l-1.3-0.7l-1.3,0.2l-1.3,0l-1.3,0
								l-1.3,0.1l-1.3,0.2l-1.3,0.1l-1.3,0.1l-1.3,0.1l-1.3,0.1l-1.3,0l-1.3,2.5l-1.3-0.1l-1.3,0.1l-1.3,0.1l-1.3,0l-1.3,0l-1.3-0.1
								l-1.3-0.1l-1.3,0.1l-1.3-0.1l-1.3-0.1l-1.3-0.1l-1.3-0.2l-1.3-0.2l-1.3-0.1l-1.3,0l-1.3-0.1l-1.3-0.5l-1.3,0l-1.3,0.1l-1.3,0
								l-1.3,0l-1.3,0l-1.3-0.1l-1.3,0l-1.3-0.6l-1.3,0l-1.3,0l-1.3,0l-1.3,0l-1.3,0l-1.3,0l-1.3,0.1l-1.3-0.1l-1.3,0l-1.3,0
								l-1.3-0.2l-1.3,0l-1.3-0.1l-1.3-0.7l-1.3-0.1l-1.3-0.6l-1.3-0.1l-1.3-0.1l-1.3-0.2l-1.3-0.3l-1.3-0.2l-1.3-0.2l-1.3,0
								l-1.3-0.1l-1.3-0.2l-1.3-0.2l-1.3-0.2l-1.3-0.2l-1.3,0.5l-1.3-0.2l-1.3-0.2l-1.3-0.2l-1.3-0.2l-1.3-0.2l-1.3-0.2l-1.3-0.2
								l-1.3-0.8l-1.3-0.2l-1.3-0.2l-1.3-0.2l-1.3-0.3l-1.3-0.3l-1.3-0.3l-1.3-0.3l-1.3-0.3l-1.3-0.3l-1.3-0.2l-1.3-0.2l-1.3-0.2
								l-1.3-0.2l-1.3-0.2l-1.3-0.2l-1.3-0.2l-1.3-0.2l-1.3-0.2l-1.3-0.2l-1.3-0.2l-1.3-0.1l-1.3-0.1l-1.3-0.1l-1.3-0.1l-1.3-0.1
								l-1.3-0.1l-1.3,0l-1.3-0.1l-1.3-0.1l-1.3,0l-1.3,0l-1.3,0l-1.3,0l-1.3,0l-1.3,0l-1.3,0.1l-1.3,0.1l-1.3,0.1l-1.3,0.1
								l-1.3,0.1l-1.3,0.2l-1.3,0.1l-1.3,0.2l-1.3,0.1l-1.3,0.1l-1.3,0.1l-1.3,0.1l-1.3,0.1l-1.3,0.1l-1.3,0.1l-1.3,0.1l-1.3,0.1
								l-1.3,0.1l-1.3,0.1l-1.3,0.1l-1.3,0.1l-1.3,0.1l-1.3,0.1l-1.3,0l-1.3,0l-1.3,0l-1.3,0l-1.3,0l-1.3-0.1l-1.3-0.1l-1.3-0.1
								l-1.3-0.1l-1.3-0.1l-1.3-0.1l-1.3-0.1l-1.3-0.2l-1.3-0.2l-1.3-0.2l-1.3-0.2l-1.3-0.3l-1.3-0.3l-1.3-0.3l-1.3-0.4l-1.3-0.5
								l-1.3-0.5l-1.3-0.6l-1.3-0.6l-1.3-0.6l-1.3-0.7l-1.3-0.7l-1.3-0.7l-1.3-0.7l-1.3-0.7l-1.3-0.7l-1.3-0.7l-1.3-0.7l-1.3-0.7
								l-1.3-0.7l-1.3-0.7l-1.3-0.7l-1.3-0.7l-1.3-0.7l-1.3-0.7l-1.3-0.7l-1.3-0.7l-1.3-0.7l-1.3-0.7l-1.3-0.7l-1.3-0.7l-1.3-0.7
								l-1.3-0.7l-1.3-0.8l-1.3-0.7l-1.3-0.7l-1.3-0.7l-1.3-0.7l-1.3-0.7l-1.3-0.7l-1.3-0.7l-1.3-0.7l-1.3-0.7l-1.3-0.7l-1.3-0.8
								l-1.3-0.9l-1.3-0.7l-1.3-0.7l-1.3-0.7l-1.3-0.7l-1.3-0.1l-1.3-1.1l-1.3-0.6l-1.3-0.6l-1.3-0.6l-1.3-1l-1.3-0.7L86,346
								l-1.3-0.7l-1.3-0.7l-1.3-0.6l-1.3-0.4l-1.3-0.8l-1.3-0.8l-1.3-0.4l-1.3-0.4l-1.3,0.3l-1.3,0.2l-1.3-0.3l-1.3-0.2l-1.3-0.9
								l-1.3-0.7l-1.3-0.3l-1.3-0.2l-1.3-0.2l-1.3-0.2l-1.3-0.3l-1.3,0.1l-1.3-0.1L57,339l-1.3,0l-1.3,0.3l-1.3,0l-1.3-0.4l-1.3,0.9
								l-1.3-0.7l-1.3-1.2l-1.3-0.6l-1.3,1.8l-1.3-2.3l-1.3-0.2l-1.3-0.7l-1.3-0.9L38.6,334.6z"/>
						</g>
					</g>
				</g>
			</g>
			<g id="patch_9">
				<g>
					<defs>
						<rect id="SVGID_00000042717223746139387220000016513776022970009492_" x="170.7" y="268.4" width="144" height="108"/>
					</defs>
					<clipPath id="SVGID_00000057848943986109764290000013801926661032353164_">
						<use xlink:href="#SVGID_00000042717223746139387220000016513776022970009492_"  style="overflow:visible;"/>
					</clipPath>
					
						<path style="opacity:0.1;clip-path:url(#SVGID_00000057848943986109764290000013801926661032353164_);fill:#FF0000;stroke:#FF0000;enable-background:new    ;" d="
						M51.8,475.4V169.3h88.9v306.1H51.8z"/>
				</g>
			</g>
			<g id="matplotlib.axis_3">
				<g id="xtick_4">
					<g id="line2d_8">
						<g>
							<g>
								<path id="m9f4b01329c_00000166660850748829187940000008603348770256132539_" class="st6" d="M51.8,503.8v-8.5"/>
							</g>
						</g>
					</g>
					<g id="text_5">
						<g transform="translate(17.313733 185.784899)scale(0.06 -0.06)">
							<g>
								<path id="DejaVuSans-20_00000074432646569570319610000018256584585686340000_" class="st7" d="M529.4-5680.8"/>
							</g>
						</g>
					</g>
				</g>
				<g id="xtick_5">
					<g id="line2d_9">
						<g>
							<g>
								<path id="m9f4b01329c_00000136409224246482549490000016531460290312139424_" class="st6" d="M140.7,503.8v-8.5"/>
							</g>
						</g>
					</g>
					<g id="text_6">
						<g transform="translate(48.668571 185.784899)scale(0.06 -0.06)">
							<g>
								<path id="DejaVuSans-20_00000160886451561048788900000008096938142021625234_" class="st7" d="M1488.2-5680.8"/>
							</g>
						</g>
					</g>
				</g>
				<g id="xtick_6">
					<g id="line2d_10">
						<g>
							<g>
								<path id="m9f4b01329c_00000079453515417775671800000008676558489558294921_" class="st6" d="M446.8,503.8v-8.5"/>
							</g>
						</g>
					</g>
				</g>
			</g>
			<g id="matplotlib.axis_4">
				<g id="ytick_3">
					<g id="line2d_11">
						<g>
							<g>
								<path id="m73cecd7be3_00000003785748042679010840000013914414628652981151_" class="st6" d="M10.3,475.4h8.5"/>
							</g>
						</g>
					</g>
					<g id="text_7">
						<g transform="translate(-1.784866 170.005368)scale(0.06 -0.06)">
							<g>
								<path id="DejaVuSans-20_00000036969835706127942050000004031535860137171607_" class="st7" d="M-54.6-5198.3"/>
							</g>
						</g>
					</g>
				</g>
				<g id="ytick_4">
					<g id="line2d_12">
						<g>
							<g>
								<path id="m73cecd7be3_00000081631309897699584300000009210577059897588881_" class="st6" d="M10.3,169.3h8.5"/>
							</g>
						</g>
					</g>
					<g id="text_8">
						<g transform="translate(-1.784866 62.005374)scale(0.06 -0.06)">
							<g>
								<path id="DejaVuSans-20_00000008112293610974335870000013407431471114405507_" class="st7" d="M-54.6-1896"/>
							</g>
						</g>
					</g>
				</g>
			</g>
			<g id="line2d_13">
				<g>
					<defs>
						<rect id="SVGID_00000082355435843805165400000015602978295241717148_" x="170.7" y="268.4" width="144" height="108"/>
					</defs>
					<clipPath id="SVGID_00000089573619765397288220000011983667641759978656_">
						<use xlink:href="#SVGID_00000082355435843805165400000015602978295241717148_"  style="overflow:visible;"/>
					</clipPath>
					
						<path style="clip-path:url(#SVGID_00000089573619765397288220000011983667641759978656_);fill:none;stroke:#FF0000;stroke-width:0.5;stroke-linecap:square;stroke-linejoin:round;" d="
						M38.6,328.8l4,2.4l1.3,0.2l1.3,1.8l1.3-1.2l1.3,0.8l1.3,1.3l1.3,0.6l1.3-0.7l1.3,0.4l1.3,0l1.3-0.5l1.3-0.1l1.3-0.5l2.6-0.3
						l2.6,0.5l4,0.4l1.3,0.7l1.3,1.3l2.6,0.4l2.6-1l2.6,0.6l2.6,2l2.6,1.1l5.3,2.8l1.3,1.2l4,1.7l1.3,1.2l1.3,0l5.3,2.5l4,2.5
						l32.9,16.6l15.8,7.2l4,1.2l5.3,0.9l7.9,0.6l10.5,0.1l18.4-1.4l14.5-1.2l10.5,0.2l9.2,0.9l15.8,2.7l15.8,3.4l2.6,0.4l1.3-0.6
						l15.8,2l1.3,0.6l1.3,0.1l1.3,0.8l7.9,0.3l4-0.1l5.3,0.1l1.3,0.5l11.9,0.3l5.3,0.4l4,0.2l2.6-0.2l4,0.1l4-0.3l1.3-1.8l6.6-0.4
						l4-0.3l2.6-0.2l1.3,0.7l6.6-0.3l4-0.3l1.3,0.6l1.3-0.8l4-0.1l2.6-0.4l10.5-0.8l1.3-0.3l2.6-0.1l2.6-0.5l1.3,0.2l17.1-3.1
						l1.3,0.6l1.3-1.2l2.6-0.6l5.3-0.4l7.9-1.3l2.6-0.8l5.3-1.6l9.2-1.9l0,0"/>
				</g>
			</g>
			<g id="line2d_14">
				<g>
					<defs>
						<rect id="SVGID_00000119840346406898995630000014631123271676298642_" x="170.7" y="268.4" width="144" height="108"/>
					</defs>
					<clipPath id="SVGID_00000177454420200268357760000000508264575051952533_">
						<use xlink:href="#SVGID_00000119840346406898995630000014631123271676298642_"  style="overflow:visible;"/>
					</clipPath>
					
						<path style="clip-path:url(#SVGID_00000177454420200268357760000000508264575051952533_);fill:none;stroke:#000000;stroke-width:0.5;stroke-linecap:square;stroke-linejoin:round;" d="
						M38.6,330.8l2.6,0.9l2.6,0l1.3,0.2l1.3,2.5l1.3-0.8l1.3,0.5l1.3,0.9l1.3-0.2l1.3-0.7l1.3-0.1l1.3-1.1l5.3-1.2l1.3-0.3l1.3,1.2
						l5.3-0.2l4,0.3l2.6,0.9l4,0l6.6-0.1l1.3,0.4l5.3-0.3l1.3,0.3l14.5-1.2l4-0.9l10.5-3.6l2.6-0.9l1.3,0l10.5-3.2l2.6-0.5l4-1.4
						l11.9-3.3l1.3-0.4l2.6-0.3l2.6-1.1l6.6-1.8l14.5-3.6l7.9-2l1.3-1l11.9-3.5l5.3-1.5l2.6-0.3l2.6-0.5l1.3-0.9l23.7-5.7l1.3,0.2
						l7.9-1.3l7.9-1.5l11.9-2.2l2.6-0.4l1.3,0.2l1.3-0.3l1.3,0.6l5.3-0.1l1.3-0.7l1.3,0.1l1.3-0.6l6.6,0.6l1.3-0.2l1.3-0.8l2.6,0.3
						l2.6-0.4l1.3-0.1l1.3,0.2l13.2-1.5l1.3,0l1.3,0.8l1.3-1l5.3-0.5l1.3-0.7l9.2-0.8l1.3-0.6l5.3-0.2l1.3,0.2l1.3-0.6l1.3,0.2
						l2.6-0.6l4-0.3l2.6-0.7l1.3-0.1l1.3-1l4-0.6l1.3,0.3l2.6-0.2l1.3,0.4l4-0.6l2.6-0.2l1.3-0.9l7.9-0.7l2.6-0.2l4-1.2l2.6-0.3
						l2.6,0.3l4-0.2l15.8,0.2l2.6-0.4l9.2-0.4l1.3-0.7l7.9-0.3l1.3-0.8l1.3-0.1l1.3-1.4l5.3-0.5l2.6,0.3l0,0"/>
				</g>
			</g>
			<g id="patch_10">
				<path class="st10" d="M10.3,475.4V169.3"/>
			</g>
			<g id="patch_11">
				<path class="st0" d="M446.8,475.4V169.3"/>
			</g>
			<g id="patch_12">
				<path class="st10" d="M51.8,503.8h395"/>
			</g>
			<g id="patch_13">
				<path class="st0" d="M51.8,169.3h395"/>
			</g>
		</g>
	</g>
</g>
<rect x="56.4" y="34.4" class="st16" width="93" height="33.7"/>
<text transform="matrix(1 0 0 1 59.6568 39.0045)"><tspan x="0" y="0" class="st17 st18">Orco&gt;csChrimson with Optic </tspan><tspan x="16.1" y="7.2" class="st17 st18">Flow Grid No wind</tspan></text>
<rect x="247.1" y="31.8" class="st16" width="93" height="33.7"/>
<text transform="matrix(1 0 0 1 252.5996 36.3996)"><tspan x="0" y="0" class="st17 st18">Orco&gt;csChrimson No Optic </tspan><tspan x="13.8" y="7.2" class="st17 st18">Flow Grid No wind</tspan></text>
</svg>
